<?xml version="1.0" standalone="no"?><!DOCTYPE svg PUBLIC "-//W3C//DTD SVG 1.1//EN" "http://www.w3.org/Graphics/SVG/1.1/DTD/svg11.dtd"><svg class="icon" width="200px" height="200.00px" viewBox="0 0 1024 1024" version="1.1" xmlns="http://www.w3.org/2000/svg"><path d="M902.095 314.514v538.82a97.524 97.524 0 0 1-97.524 97.523H219.43a97.524 97.524 0 0 1-97.524-97.524V170.667a97.524 97.524 0 0 1 97.524-97.524h441.295z" fill="#F4C446" /><path d="M660.724 216.99V73.143l241.371 241.371H758.248a97.524 97.524 0 0 1-97.524-97.524z" fill="#DBAC30" /><path d="M447.39 73.143h58.759V131.9H447.39z m58.515 58.758h58.758v58.758h-58.758z" fill="#FFFFFF" /><path d="M447.39 190.415h58.759v58.758H447.39z m58.515 58.758h58.758v58.758h-58.758z" fill="#FFFFFF" /><path d="M447.39 307.688h58.759v58.758H447.39z m58.515 58.758h58.758v58.758h-58.758z m-58.515 58.758h58.759v58.758H447.39z" fill="#FFFFFF" /><path d="M505.905 483.718h58.758v58.758h-58.758zM447.39 609.524v117.028a29.257 29.257 0 0 0 29.258 29.258h59.733a29.257 29.257 0 0 0 29.257-29.258V609.524z m88.991 117.028h-59.733v-58.758h59.733z" fill="#FFFFFF" /></svg>