<?xml version="1.0" standalone="no"?><!DOCTYPE svg PUBLIC "-//W3C//DTD SVG 1.1//EN" "http://www.w3.org/Graphics/SVG/1.1/DTD/svg11.dtd"><svg t="1644483676162" class="icon" viewBox="0 0 1024 1024" version="1.1" xmlns="http://www.w3.org/2000/svg" p-id="1130" xmlns:xlink="http://www.w3.org/1999/xlink" width="200" height="200"><defs><style type="text/css"></style></defs><path d="M961.4953513 284.4425103v620.86693033a112.37412589 112.37412589 0 0 1-112.37412589 112.37297362H174.87992686a112.37412589 112.37412589 0 0 1-112.37412589-112.37412588V118.69171163a112.37412589 112.37412589 0 0 1 112.37412589-112.37412588h508.49165217z" fill="#F4C446" p-id="1131"></path><path d="M683.37042677 172.06838441V6.31758575l278.12492453 278.12492455H795.74455263a112.37412589 112.37412589 0 0 1-112.37412586-112.37412589z" fill="#DBAC30" p-id="1132"></path><path d="M437.55173829 6.31758575h67.70632115V74.02160237H437.55173829z m67.42516692 67.70516889h67.70516886v67.70516887h-67.70516886z" fill="#FFFFFF" p-id="1133"></path><path d="M437.55173829 141.44676926h67.70632115v67.70516887H437.55173829z m67.42516692 67.70516887h67.70516886v67.70516887h-67.70516886z" fill="#FFFFFF" p-id="1134"></path><path d="M437.55173829 276.57710502h67.70632115v67.70516888H437.55173829z m67.42516692 67.70516888h67.70516886v67.70516886h-67.70516886z m-67.42516692 67.70516886h67.70632115v67.70516888H437.55173829z" fill="#FFFFFF" p-id="1135"></path><path d="M504.97690521 479.41145741h67.70516886v67.70516885h-67.70516886zM437.55173829 624.37412589v134.84802925a33.71200731 33.71200731 0 0 0 33.71315958 33.71315959h68.82863361a33.71200731 33.71200731 0 0 0 33.71200731-33.71315959V624.37412589z m102.54179319 134.84802925h-68.82863361v-67.70516888h68.82863361z" fill="#FFFFFF" p-id="1136"></path></svg>